<?xml version="1.0" encoding="UTF-8"?>
<!-- Stanley starter library art, CC0 1.0 (see LICENSE at the library root). -->
<svg xmlns="http://www.w3.org/2000/svg" xmlns:inkscape="http://www.inkscape.org/namespaces/inkscape" width="320" height="220" viewBox="-160 -1060 320 220" data-stanley-view="front" data-stanley-slot="hairFringe">
  <g id="front" inkscape:groupmode="layer" inkscape:label="front">
    <path class="slot-hair" fill="#5a3a22" stroke="none" d="M-52,-950 C-51.7,-947 -51.8,-943.9 -51,-941 C-50.1,-937.5 -48.7,-934.2 -47,-931 C-45.3,-927.8 -43.3,-924.8 -41,-922 C-39,-919.6 -36.6,-917.3 -34,-915.5 C-31.9,-914.1 -29.3,-913.5 -27,-912.5 C-24.7,-914.2 -22.1,-915.5 -20,-917.5 C-17.1,-920.2 -14.7,-923.5 -12,-926.5 C-9,-929.8 -6.3,-933.5 -3,-936.5 C0.4,-939.6 4.1,-942.5 8,-945 C11.8,-947.5 15.8,-949.7 20,-951.5 C24.2,-953.3 28.6,-954.9 33,-956 C36.6,-956.9 40.3,-957.5 44,-957.5 C46.7,-957.5 49.3,-956.5 52,-956 C53,-956.7 56.1,-958.5 55,-958 C53.3,-957.1 51.3,-953.5 50,-955 C45,-960.8 44.4,-969.4 40,-975.7 C37.6,-979.2 33.7,-981.6 30,-983.8 C26.9,-985.6 23.4,-986.5 20,-987.5 C16.7,-988.4 13.4,-989 10,-989.4 C6.7,-989.8 3.3,-990 0,-990 C-3.3,-990 -6.7,-989.8 -10,-989.4 C-13.4,-989 -16.7,-988.4 -20,-987.5 C-23.4,-986.5 -26.9,-985.6 -30,-983.8 C-33.7,-981.6 -37.6,-979.2 -40,-975.7 C-44.4,-969.4 -45,-960.8 -50,-955 C-51.4,-953.4 -54,-959.4 -55.5,-958 C-57.5,-956.2 -56.6,-952.4 -55.5,-950 C-55,-948.9 -53.2,-950 -52,-950 Z"/>
    <path class="slot-hair" fill="none" stroke="#1a1a1a" stroke-width="3" stroke-linejoin="round" stroke-linecap="round" d="M-52,-950 C-51.7,-947 -51.8,-943.9 -51,-941 C-50.1,-937.5 -48.7,-934.2 -47,-931 C-45.3,-927.8 -43.3,-924.8 -41,-922 C-39,-919.6 -36.6,-917.3 -34,-915.5 C-31.9,-914.1 -29.3,-913.5 -27,-912.5 C-24.7,-914.2 -22.1,-915.5 -20,-917.5 C-17.1,-920.2 -14.7,-923.5 -12,-926.5 C-9,-929.8 -6.3,-933.5 -3,-936.5 C0.4,-939.6 4.1,-942.5 8,-945 C11.8,-947.5 15.8,-949.7 20,-951.5 C24.2,-953.3 28.6,-954.9 33,-956 C36.6,-956.9 40.3,-957.5 44,-957.5 C46.7,-957.5 49.3,-956.5 52,-956"/>
    <path class="slot-hair" fill="none" stroke="#3b2414" stroke-width="1.5" stroke-linejoin="round" stroke-linecap="round" d="M44,-972 C40.3,-975.4 37.1,-979.3 33,-982.1 C29.7,-984.3 25.8,-985.5 22,-986.8 C18.4,-987.9 14.7,-988.8 11,-989.3 C7.4,-989.8 3.7,-990 0,-990 C-3.7,-990 -7.4,-989.8 -11,-989.3 C-14.7,-988.8 -18.4,-987.9 -22,-986.8 C-25.8,-985.5 -29.7,-984.3 -33,-982.1 C-37.1,-979.3 -40.3,-975.4 -44,-972"/>
    <path class="slot-hair" fill="none" stroke="#3b2414" stroke-width="1.5" stroke-linejoin="round" stroke-linecap="round" d="M38,-984 C10,-984 -22,-962 -30,-927"/>
    <path class="slot-hair" fill="none" stroke="#3b2414" stroke-width="1.5" stroke-linejoin="round" stroke-linecap="round" d="M46,-968 C20,-972 -8,-960 -24,-935"/>
    <path class="slot-hair" fill="none" stroke="#3b2414" stroke-width="1.5" stroke-linejoin="round" stroke-linecap="round" d="M10,-989 C-14,-984 -36,-968 -44,-943"/>
    <path class="slot-hair" fill="none" stroke="#3b2414" stroke-width="1.5" stroke-linejoin="round" stroke-linecap="round" d="M50,-960 C30,-962 10,-956 -5,-946"/>
  </g>
</svg>
