<?xml version="1.0" encoding="UTF-8"?>
<!-- Stanley starter library art, CC0 1.0 (see LICENSE at the library root). -->
<svg xmlns="http://www.w3.org/2000/svg" xmlns:inkscape="http://www.inkscape.org/namespaces/inkscape" width="300" height="340" viewBox="-150 -1060 300 340" data-stanley-view="profile" data-stanley-slot="headwear">
  <g id="seams" inkscape:groupmode="layer" inkscape:label="seams">
    <path class="slot-hat" d="M8,-1011.4 L8,-967.9" fill="none" stroke="#216541" stroke-width="1.5" stroke-linejoin="round" stroke-linecap="round"/>
    <path class="slot-hat" d="M15.9,-1011.4 C21.2,-1009.9 26.7,-1009 31.8,-1006.7 C36.8,-1004.4 41.8,-1001.2 46.2,-997.5 C50.6,-993.7 54.8,-989.2 58.3,-984.2 C61.8,-979.3 64.3,-973.3 67.3,-967.9" fill="none" stroke="#216541" stroke-width="1.5" stroke-linejoin="round" stroke-linecap="round"/>
    <path class="slot-hat" d="M0.1,-1011.4 C-5.2,-1009.9 -10.7,-1009 -15.8,-1006.7 C-20.8,-1004.4 -25.8,-1001.2 -30.2,-997.5 C-34.6,-993.7 -38.8,-989.2 -42.3,-984.2 C-45.8,-979.3 -48.3,-973.3 -51.3,-967.9" fill="none" stroke="#216541" stroke-width="1.5" stroke-linejoin="round" stroke-linecap="round"/>
    <path class="slot-hat" d="M1,-1011 C1,-1016 15,-1016 15,-1011 Z" fill="#2f8a57" stroke="#1a1a1a" stroke-width="2" stroke-linejoin="round" stroke-linecap="round"/>
  </g>
  <g id="brim" inkscape:groupmode="layer" inkscape:label="brim">
    <path class="slot-hat" d="M-68,-967 C-68,-970.2 -47.2,-970 -34.6,-971 C-21.9,-972 -6.2,-973 8,-973 C22.2,-973 37.9,-972 50.6,-971 C63.2,-970 84,-970.2 84,-967 C84,-963.8 63.2,-954 50.6,-952 C37.9,-950 22.2,-955 8,-955 C-6.2,-955 -21.9,-950 -34.6,-952 C-47.2,-954 -68,-963.8 -68,-967 Z" fill="#2f8a57" stroke="#1a1a1a" stroke-width="3" stroke-linejoin="round" stroke-linecap="round"/>
    <path class="slot-hat" d="M-60,-966 C-50,-962.7 -41.3,-957.2 -30,-956 C-18.7,-954.8 -4.7,-959 8,-959 C20.7,-959 34.7,-954.8 46,-956 C57.3,-957.2 66,-962.7 76,-966" fill="none" stroke="#216541" stroke-width="1.5" stroke-linejoin="round" stroke-linecap="round"/>
  </g>
</svg>
